<svg width="88" height="85" viewBox="0 0 88 85" fill="none" xmlns="http://www.w3.org/2000/svg">
<g id="Vector" filter="url(#filter0_i_13_762)">
<path d="M30.4615 45.8985C30.4615 46.9073 30.1638 47.8933 29.6059 48.7321C29.0481 49.5708 28.2552 50.2245 27.3275 50.6105C26.3998 50.9965 25.379 51.0975 24.3942 50.9007C23.4093 50.7039 22.5047 50.2182 21.7947 49.5049C21.0847 48.7916 20.6011 47.8829 20.4052 46.8935C20.2093 45.9042 20.3099 44.8787 20.6941 43.9468C21.0784 43.0149 21.7291 42.2183 22.564 41.6579C23.3989 41.0975 24.3805 40.7984 25.3846 40.7984C26.7311 40.7984 28.0224 41.3357 28.9745 42.2922C29.9267 43.2486 30.4615 44.5459 30.4615 45.8985ZM62.6154 40.7984C61.6113 40.7984 60.6297 41.0975 59.7948 41.6579C58.9599 42.2183 58.3092 43.0149 57.9249 43.9468C57.5407 44.8787 57.4401 45.9042 57.636 46.8935C57.8319 47.8829 58.3154 48.7916 59.0255 49.5049C59.7355 50.2182 60.6401 50.7039 61.6249 50.9007C62.6098 51.0975 63.6306 50.9965 64.5582 50.6105C65.4859 50.2245 66.2788 49.5708 66.8367 48.7321C67.3945 47.8933 67.6923 46.9073 67.6923 45.8985C67.6923 44.5459 67.1574 43.2486 66.2053 42.2922C65.2532 41.3357 63.9619 40.7984 62.6154 40.7984ZM88 6.7971V44.1985C88 66.6946 68.2635 85 44 85C19.7365 85 0 66.6946 0 44.1985V6.7971C0.000620173 5.4526 0.397965 4.13845 1.14182 3.02074C1.88567 1.90302 2.94265 1.0319 4.17918 0.517464C5.41571 0.00302911 6.77629 -0.131633 8.08898 0.130496C9.40167 0.392625 10.6075 1.03978 11.5542 1.99017C11.6135 2.04968 11.6642 2.10493 11.715 2.16443L19.0385 10.6222C26.5267 5.90917 35.1846 3.40956 44.0212 3.40956C52.8577 3.40956 61.5156 5.90917 69.0039 10.6222L76.285 2.16443C76.3358 2.10493 76.3865 2.04968 76.4458 1.99017C77.3925 1.03978 78.5983 0.392625 79.911 0.130496C81.2237 -0.131633 82.5843 0.00302911 83.8208 0.517464C85.0574 1.0319 86.1143 1.90302 86.8582 3.02074C87.602 4.13845 87.9994 5.4526 88 6.7971ZM81.2308 6.7971L72.1092 17.3375C71.5513 17.986 70.7701 18.3988 69.9221 18.4934C69.074 18.5879 68.2217 18.3573 67.5358 17.8475C65.471 16.3136 63.2552 14.9963 60.9231 13.9161V23.7977C60.9231 24.6995 60.5665 25.5643 59.9317 26.202C59.297 26.8396 58.4361 27.1979 57.5385 27.1979C56.6408 27.1979 55.7799 26.8396 55.1452 26.202C54.5104 25.5643 54.1538 24.6995 54.1538 23.7977V11.4935C51.9334 10.9197 49.6691 10.533 47.3846 10.3375V23.7977C47.3846 24.6995 47.028 25.5643 46.3933 26.202C45.7585 26.8396 44.8977 27.1979 44 27.1979C43.1023 27.1979 42.2415 26.8396 41.6067 26.202C40.972 25.5643 40.6154 24.6995 40.6154 23.7977V10.3375C38.3309 10.533 36.0666 10.9197 33.8462 11.4935V23.7977C33.8462 24.6995 33.4896 25.5643 32.8548 26.202C32.2201 26.8396 31.3592 27.1979 30.4615 27.1979C29.5639 27.1979 28.703 26.8396 28.0683 26.202C27.4335 25.5643 27.0769 24.6995 27.0769 23.7977V13.9161C24.7448 14.9963 22.529 16.3136 20.4642 17.8475C19.7798 18.3588 18.9284 18.5916 18.0805 18.4994C17.2325 18.4072 16.4505 17.9968 15.8908 17.3502L6.76923 6.7971V44.1985C6.76923 61.9046 21.6658 76.4997 40.6154 78.0595V69.4062L34.8362 63.6005C34.522 63.2845 34.2728 62.9096 34.1029 62.4969C33.9329 62.0843 33.8456 61.6421 33.8458 61.1955C33.846 60.7489 33.9337 60.3068 34.104 59.8943C34.2743 59.4818 34.5238 59.107 34.8383 58.7914C35.4734 58.154 36.3345 57.7961 37.2323 57.7965C37.6768 57.7967 38.1169 57.8848 38.5275 58.0559C38.9381 58.227 39.3112 58.4776 39.6254 58.7935L44 63.1882L48.3746 58.7935C48.6888 58.4776 49.0619 58.227 49.4725 58.0559C49.8831 57.8848 50.3232 57.7967 50.7677 57.7965C51.2123 57.7963 51.6525 57.884 52.0632 58.0547C52.474 58.2255 52.8473 58.4758 53.1617 58.7914C53.4762 59.107 53.7257 59.4818 53.896 59.8943C54.0663 60.3068 54.154 60.7489 54.1542 61.1955C54.1544 61.6421 54.0671 62.0843 53.8971 62.4969C53.7272 62.9096 53.478 63.2845 53.1638 63.6005L47.3846 69.4062V78.0595C66.3342 76.4912 81.2308 61.9089 81.2308 44.1985V6.7971Z" fill="#FFC212"/>
</g>
<defs>
<filter id="filter0_i_13_762" x="0" y="0" width="92" height="89" filterUnits="userSpaceOnUse" color-interpolation-filters="sRGB">
<feFlood flood-opacity="0" result="BackgroundImageFix"/>
<feBlend mode="normal" in="SourceGraphic" in2="BackgroundImageFix" result="shape"/>
<feColorMatrix in="SourceAlpha" type="matrix" values="0 0 0 0 0 0 0 0 0 0 0 0 0 0 0 0 0 0 127 0" result="hardAlpha"/>
<feOffset dx="4" dy="4"/>
<feGaussianBlur stdDeviation="2.5"/>
<feComposite in2="hardAlpha" operator="arithmetic" k2="-1" k3="1"/>
<feColorMatrix type="matrix" values="0 0 0 0 0 0 0 0 0 0 0 0 0 0 0 0 0 0 0.25 0"/>
<feBlend mode="normal" in2="shape" result="effect1_innerShadow_13_762"/>
</filter>
</defs>
</svg>
