<svg width="80" height="88" viewBox="0 0 80 88" fill="none" xmlns="http://www.w3.org/2000/svg">
<g id="Vector" filter="url(#filter0_i_13_740)">
<path d="M72.1116 44.544C71.7957 44.3594 71.4487 44.1826 71.0899 44.0098C71.4487 43.837 71.7957 43.6603 72.1116 43.4757C73.8998 42.4516 75.4692 41.0814 76.7295 39.4439C77.9898 37.8064 78.9162 35.9339 79.4551 33.9344C79.9941 31.9348 80.135 29.8476 79.8699 27.793C79.6048 25.7383 78.9388 23.7568 77.9102 21.9624C76.8817 20.1681 75.511 18.5964 73.8769 17.3378C72.2429 16.0793 70.3778 15.1587 68.3892 14.6291C66.4005 14.0995 64.3274 13.9714 62.2894 14.2521C60.2513 14.5327 58.2885 15.2167 56.514 16.2646C56.1981 16.4492 55.8706 16.6574 55.5469 16.8891C55.5781 16.4963 55.5976 16.1035 55.5976 15.7108C55.5976 11.544 53.9543 7.54792 51.0292 4.60158C48.1041 1.65524 44.1367 0 40 0C35.8633 0 31.8959 1.65524 28.9708 4.60158C26.0457 7.54792 24.4024 11.544 24.4024 15.7108C24.4024 16.08 24.4024 16.4728 24.4531 16.8891C24.1294 16.6652 23.8019 16.4492 23.486 16.2646C21.7115 15.2167 19.7487 14.5327 17.7106 14.2521C15.6726 13.9714 13.5995 14.0995 11.6108 14.6291C9.62216 15.1587 7.75711 16.0793 6.12308 17.3378C4.48905 18.5964 3.11831 20.1681 2.08978 21.9624C1.06125 23.7568 0.395249 25.7383 0.130111 27.793C-0.135027 29.8476 0.00594035 31.9348 0.544897 33.9344C1.08385 35.9339 2.01015 37.8064 3.27046 39.4439C4.53078 41.0814 6.10021 42.4516 7.88841 43.4757C8.20426 43.6603 8.55131 43.837 8.91005 44.0098C8.55131 44.1826 8.20426 44.3594 7.88841 44.544C6.10021 45.5681 4.53078 46.9383 3.27046 48.5758C2.01015 50.2133 1.08385 52.0857 0.544897 54.0853C0.00594035 56.0848 -0.135027 58.172 0.130111 60.2267C0.395249 62.2813 1.06125 64.2628 2.08978 66.0572C3.11831 67.8515 4.48905 69.4232 6.12308 70.6818C7.75711 71.9404 9.62216 72.8609 11.6108 73.3905C13.5995 73.9201 15.6726 74.0483 17.7106 73.7676C19.7487 73.4869 21.7115 72.8029 23.486 71.7551C23.8019 71.5704 24.1294 71.3623 24.4531 71.1306C24.4219 71.5233 24.4024 71.9161 24.4024 72.2892C24.4024 76.456 26.0457 80.4521 28.9708 83.3984C31.8959 86.3448 35.8633 88 40 88C44.1367 88 48.1041 86.3448 51.0292 83.3984C53.9543 80.4521 55.5976 76.456 55.5976 72.2892C55.5976 71.92 55.5781 71.5272 55.5469 71.1306C55.8706 71.3544 56.1981 71.5704 56.514 71.7551C58.8767 73.1337 61.5588 73.8599 64.2894 73.8603C65.6614 73.8585 67.0274 73.6763 68.3526 73.3183C71.3324 72.5138 74.0085 70.8374 76.0424 68.5009C78.0762 66.1645 79.3766 63.273 79.779 60.1922C80.1813 57.1114 79.6676 53.9795 78.3028 51.1928C76.9381 48.406 74.7835 46.0895 72.1116 44.5361V44.544ZM30.6414 44.0098C30.6414 42.1454 31.1903 40.3229 32.2186 38.7728C33.247 37.2226 34.7086 36.0144 36.4186 35.3009C38.1287 34.5874 40.0104 34.4008 41.8258 34.7645C43.6412 35.1282 45.3087 36.026 46.6175 37.3443C47.9263 38.6626 48.8176 40.3423 49.1787 42.1708C49.5398 43.9994 49.3545 45.8947 48.6462 47.6172C47.9379 49.3396 46.7383 50.8118 45.1993 51.8476C43.6603 52.8834 41.8509 53.4363 40 53.4363C37.518 53.4363 35.1376 52.4431 33.3825 50.6753C31.6274 48.9075 30.6414 46.5099 30.6414 44.0098ZM59.6335 21.7044C60.6979 21.0855 61.8728 20.6838 63.0913 20.5222C64.3098 20.3606 65.5479 20.4424 66.7351 20.7628C67.9222 21.0832 69.035 21.636 70.0101 22.3896C70.9851 23.1432 71.8032 24.0828 72.4177 25.1549C73.0322 26.227 73.431 27.4105 73.5914 28.6378C73.7518 29.8651 73.6707 31.1123 73.3526 32.308C73.0345 33.5037 72.4857 34.6247 71.7375 35.6068C70.9893 36.5889 70.0564 37.4129 68.9921 38.0319C66.5471 39.4576 61.7353 40.4395 55.2818 40.8559C54.601 37.5305 52.869 34.5168 50.3451 32.266C53.9326 26.8379 57.1886 23.1302 59.6335 21.7044ZM40 6.30395C42.482 6.30395 44.8624 7.29709 46.6175 9.0649C48.3726 10.8327 49.3586 13.2304 49.3586 15.7304C49.3586 18.5741 47.7988 23.2677 44.9288 29.1081C41.7302 28.0294 38.2698 28.0294 35.0712 29.1081C32.2012 23.2677 30.6414 18.5741 30.6414 15.7304C30.6414 13.2304 31.6274 10.8327 33.3825 9.0649C35.1376 7.29709 37.518 6.30395 40 6.30395ZM7.58036 25.1569C8.19468 24.0844 9.01275 23.1443 9.98786 22.3903C10.963 21.6363 12.076 21.0832 13.2634 20.7626C14.4507 20.442 15.6892 20.3602 16.9079 20.5218C18.1267 20.6834 19.302 21.0852 20.3665 21.7044C22.8114 23.1302 26.0674 26.8379 29.6549 32.266C27.1289 34.5198 25.3967 37.538 24.7182 40.8677C18.2647 40.4513 13.4529 39.4694 11.0079 38.0476C9.9416 37.4288 9.00689 36.6043 8.25733 35.6211C7.50777 34.638 6.95807 33.5157 6.63969 32.3183C6.32132 31.121 6.24052 29.8721 6.40194 28.6432C6.56335 27.4144 6.9638 26.2297 7.58036 25.1569ZM20.3665 66.3152C18.2169 67.5652 15.6624 67.904 13.2649 67.2569C10.8674 66.6098 8.82333 65.0299 7.58231 62.8647C6.34128 60.6996 6.005 58.1265 6.64742 55.7116C7.28985 53.2967 8.85838 51.2378 11.0079 49.9878C13.4529 48.562 18.2647 47.5801 24.7182 47.1638C25.399 50.4891 27.131 53.5029 29.6549 55.7536C26.0674 61.1817 22.8114 64.8894 20.3665 66.3152ZM40 81.7157C37.518 81.7157 35.1376 80.7225 33.3825 78.9547C31.6274 77.1869 30.6414 74.7893 30.6414 72.2892C30.6414 69.4456 32.2012 64.752 35.0712 58.9115C38.2698 59.9903 41.7302 59.9903 44.9288 58.9115C47.7988 64.752 49.3586 69.4456 49.3586 72.2892C49.3586 74.7893 48.3726 77.1869 46.6175 78.9547C44.8624 80.7225 42.482 81.7157 40 81.7157ZM72.4196 62.8628C71.8053 63.9353 70.9873 64.8754 70.0121 65.6293C69.037 66.3833 67.924 66.9364 66.7366 67.257C65.5493 67.5776 64.3108 67.6595 63.0921 67.4979C61.8733 67.3363 60.698 66.9344 59.6335 66.3152C57.1886 64.8894 53.9326 61.1817 50.3451 55.7536C52.8711 53.4998 54.6033 50.4816 55.2818 47.152C61.7353 47.5683 66.5471 48.5502 68.9921 49.9721C70.0584 50.5908 70.9931 51.4154 71.7427 52.3985C72.4922 53.3816 73.0419 54.504 73.3603 55.7013C73.6787 56.8987 73.7595 58.1475 73.5981 59.3764C73.4367 60.6053 73.0362 61.79 72.4196 62.8628Z" fill="#FFC212"/>
</g>
<defs>
<filter id="filter0_i_13_740" x="0" y="0" width="84" height="92" filterUnits="userSpaceOnUse" color-interpolation-filters="sRGB">
<feFlood flood-opacity="0" result="BackgroundImageFix"/>
<feBlend mode="normal" in="SourceGraphic" in2="BackgroundImageFix" result="shape"/>
<feColorMatrix in="SourceAlpha" type="matrix" values="0 0 0 0 0 0 0 0 0 0 0 0 0 0 0 0 0 0 127 0" result="hardAlpha"/>
<feOffset dx="4" dy="4"/>
<feGaussianBlur stdDeviation="2.5"/>
<feComposite in2="hardAlpha" operator="arithmetic" k2="-1" k3="1"/>
<feColorMatrix type="matrix" values="0 0 0 0 0 0 0 0 0 0 0 0 0 0 0 0 0 0 0.25 0"/>
<feBlend mode="normal" in2="shape" result="effect1_innerShadow_13_740"/>
</filter>
</defs>
</svg>
