<svg width="90" height="88" viewBox="0 0 90 88" fill="none" xmlns="http://www.w3.org/2000/svg">
<g id="hand/heart card" filter="url(#filter0_i_13_755)">
<path id="Vector" d="M45.0002 7.42657L42.9682 9.63458C43.5218 10.1434 44.2463 10.4257 44.9982 10.4257C45.7501 10.4257 46.4746 10.1434 47.0282 9.63458L45.0002 7.42657ZM39.3641 27.7867C36.6041 25.7747 33.6601 23.3267 31.4361 20.7467C29.1401 18.0866 28 15.7306 28 13.8626H22C22 17.9306 24.312 21.6787 26.892 24.6667C29.5441 27.7387 32.8961 30.4947 35.8321 32.6348L39.3641 27.7867ZM28 13.8626C28 9.62658 30.0801 7.21057 32.5841 6.37056C35.1921 5.49055 39.0801 6.05856 42.9682 9.63458L47.0282 5.21855C41.9201 0.522517 35.8161 -1.04549 30.6721 0.682518C25.42 2.45053 22 7.38657 22 13.8626H28ZM54.1682 32.6348C57.1043 30.4987 60.4563 27.7387 63.1083 24.6667C65.6883 21.6787 68.0003 17.9306 68.0003 13.8626H62.0003C62.0003 15.7306 60.8643 18.0866 58.5643 20.7467C56.3402 23.3267 53.3962 25.7747 50.6362 27.7867L54.1682 32.6348ZM68.0003 13.8626C68.0003 7.38657 64.5803 2.45053 59.3323 0.682518C54.1882 -1.04549 48.0802 0.522517 42.9722 5.21855L47.0282 9.63458C50.9202 6.05856 54.8122 5.49055 57.4203 6.37056C59.9203 7.21057 62.0003 9.62658 62.0003 13.8626H68.0003ZM35.8321 32.6348C38.8521 34.8348 41.2481 36.7068 45.0002 36.7068V30.7067C43.5402 30.7067 42.7401 30.2467 39.3641 27.7867L35.8321 32.6348ZM50.6322 27.7867C47.2602 30.2467 46.4602 30.7067 45.0002 30.7067V36.7068C48.7522 36.7068 51.1482 34.8388 54.1682 32.6348L50.6362 27.7867H50.6322Z" fill="#FFC212"/>
<path id="Vector_2" d="M17 76.5552H26.0401C30.0801 76.5552 34.1721 76.9792 38.1042 77.7872C45.1242 79.2294 52.3473 79.3893 59.4243 78.2592C62.8963 77.6992 66.3044 76.8392 69.3924 75.3512C72.1764 74.0032 75.5884 72.1112 77.8804 69.9872C80.1685 67.8672 82.5525 64.3991 84.2405 61.6871C85.6965 59.3591 84.9925 56.5071 82.6965 54.7751C81.4063 53.8366 79.8519 53.331 78.2564 53.331C76.661 53.331 75.1066 53.8366 73.8164 54.7751L66.5884 60.2351C63.7883 62.3551 60.7283 64.3031 57.0843 64.8831C56.6443 64.9511 56.1843 65.0151 55.7043 65.0711M55.7043 65.0711C55.5577 65.0881 55.4111 65.1041 55.2643 65.1191M55.7043 65.0711C56.3445 64.898 56.9315 64.568 57.4123 64.1111C58.0151 63.5897 58.5073 62.9528 58.8599 62.238C59.2125 61.5232 59.4183 60.7451 59.4653 59.9494C59.5123 59.1538 59.3994 58.3568 59.1334 57.6055C58.8673 56.8542 58.4535 56.1638 57.9163 55.5751C57.3951 54.9964 56.788 54.5013 56.1163 54.1071C44.9282 47.431 27.5161 52.515 17 59.9751M55.7043 65.0711C55.5597 65.1026 55.4122 65.1187 55.2643 65.1191M55.2643 65.1191C52.8519 65.3616 50.4216 65.3669 48.0082 65.1351" stroke="#FFC212" stroke-width="9.375" stroke-linecap="round"/>
<path id="Vector_3" d="M17.0001 57.003C17.0001 53.6892 14.3138 51.0029 11 51.0029C7.68631 51.0029 5 53.6892 5 57.003V77.0031C5 80.3169 7.68631 83.0032 11 83.0032C14.3138 83.0032 17.0001 80.3169 17.0001 77.0031V57.003Z" stroke="#FFC212" stroke-width="9.375"/>
</g>
<defs>
<filter id="filter0_i_13_755" x="0.3125" y="0" width="93.3853" height="91.6907" filterUnits="userSpaceOnUse" color-interpolation-filters="sRGB">
<feFlood flood-opacity="0" result="BackgroundImageFix"/>
<feBlend mode="normal" in="SourceGraphic" in2="BackgroundImageFix" result="shape"/>
<feColorMatrix in="SourceAlpha" type="matrix" values="0 0 0 0 0 0 0 0 0 0 0 0 0 0 0 0 0 0 127 0" result="hardAlpha"/>
<feOffset dx="4" dy="4"/>
<feGaussianBlur stdDeviation="2.5"/>
<feComposite in2="hardAlpha" operator="arithmetic" k2="-1" k3="1"/>
<feColorMatrix type="matrix" values="0 0 0 0 0 0 0 0 0 0 0 0 0 0 0 0 0 0 0.25 0"/>
<feBlend mode="normal" in2="shape" result="effect1_innerShadow_13_755"/>
</filter>
</defs>
</svg>
