<svg width="76" height="88" viewBox="0 0 76 88" fill="none" xmlns="http://www.w3.org/2000/svg">
<g id="Vector" filter="url(#filter0_i_13_749)">
<path d="M76 52.9468C76.0068 49.0151 75.0107 45.1459 73.1047 41.7006C73.8071 40.6786 74.1991 39.4776 74.2341 38.2404C74.269 37.0033 73.9454 35.7823 73.3018 34.7228C72.6581 33.6633 71.7216 32.81 70.6037 32.2645C69.4858 31.7191 68.2338 31.5044 66.9966 31.6461C67.4875 30.6588 67.8813 29.6218 68.1723 28.5498L70.3269 20.5839C71.5016 16.8735 71.2607 12.8632 69.6503 9.31803C68.0398 5.77283 65.1724 2.94085 61.5951 1.36233C58.0178 -0.216192 53.981 -0.430787 50.2547 0.759481C46.5284 1.94975 43.3734 4.46158 41.3915 7.81581C39.5766 5.32955 36.929 3.56793 33.9244 2.84742C30.9198 2.12691 27.7552 2.49475 24.999 3.88485C22.2428 5.27494 20.0758 7.59618 18.8872 10.4316C17.6986 13.2669 17.5663 16.4306 18.5142 19.3542H11.78C0.145874 19.3542 -4.42195 34.3482 5.25749 40.76L10.9599 44.5399L6.98291 60.0451C6.48574 61.9161 6.43136 63.8762 6.82404 65.7716C7.21672 67.667 8.04578 69.4463 9.24625 70.97C10.8149 72.9794 12.9554 74.4735 15.3896 75.2582V85.0789C15.3896 85.8536 15.6993 86.5966 16.2505 87.1444C16.8018 87.6922 17.5494 88 18.329 88H73.0606C73.8401 88 74.5878 87.6922 75.139 87.1444C75.6903 86.5966 76 85.8536 76 85.0789V52.9468ZM34.8484 75.8774H42.8436C44.5462 75.8777 46.181 75.2136 47.3959 74.0281C48.6108 72.8426 49.3088 71.2305 49.3396 69.5387C49.34 68.673 49.1683 67.8157 48.8342 67.0162C48.5001 66.2168 48.0104 65.4908 47.393 64.88C46.7757 64.2692 46.043 63.7857 45.237 63.4573C44.431 63.1288 43.5677 62.9619 42.6966 62.9662H34.8484V54.9069C34.8485 54.4261 34.7291 53.9527 34.5009 53.5287C34.2728 53.1048 33.9428 52.7433 33.5404 52.4765L8.51728 35.8993C3.67903 32.6919 5.96294 25.1964 11.78 25.1964H20.122L20.8275 27.7961C21.5 30.2832 22.8673 32.5303 24.7711 34.2775C26.6749 36.0247 29.0375 37.2007 31.5857 37.6695C33.2425 37.9576 34.9414 37.9029 36.576 37.5089C38.2107 37.1148 39.7459 36.3899 41.0858 35.3793C41.2475 35.4085 41.415 35.4202 41.5855 35.4202H52.4848C53.6106 35.4202 54.7099 35.5254 55.7769 35.724L48.399 38.5458C46.989 39.0901 45.8143 40.1064 45.0776 41.4194C44.341 42.7323 44.0884 44.2596 44.3636 45.7378C44.6388 47.2159 45.4245 48.5523 46.5851 49.5164C47.7457 50.4805 49.2085 51.0119 50.7211 51.0189C51.5265 51.0189 52.3231 50.8699 53.0727 50.5807L68.1194 44.8261C69.3981 47.2507 70.1212 50.0169 70.1212 52.9468V82.1578H34.8484V75.8774ZM45.4449 29.578C46.4975 26.8841 46.6582 23.9268 45.9035 21.136L44.5866 16.4009L45.2921 13.7895L45.3097 13.7194C45.596 12.3962 46.1499 11.1446 46.9377 10.0406C47.7255 8.93658 48.7309 8.00317 49.8927 7.29701C51.0545 6.59084 52.3486 6.12665 53.6965 5.9326C55.0443 5.73855 56.4178 5.81869 57.7335 6.16816C59.0492 6.51763 60.2798 7.12914 61.3505 7.96557C62.4212 8.80201 63.3097 9.84592 63.9621 11.034C64.6145 12.222 65.0172 13.5294 65.1457 14.8768C65.2742 16.2242 65.1259 17.5835 64.7097 18.8722L64.6892 18.9364L62.4934 27.0425C62.1083 28.4747 61.4276 29.8117 60.4946 30.9684C57.9264 30.0454 55.2158 29.5749 52.4848 29.578H45.4449Z" fill="#FFC212"/>
</g>
<defs>
<filter id="filter0_i_13_749" x="0" y="0" width="80" height="92" filterUnits="userSpaceOnUse" color-interpolation-filters="sRGB">
<feFlood flood-opacity="0" result="BackgroundImageFix"/>
<feBlend mode="normal" in="SourceGraphic" in2="BackgroundImageFix" result="shape"/>
<feColorMatrix in="SourceAlpha" type="matrix" values="0 0 0 0 0 0 0 0 0 0 0 0 0 0 0 0 0 0 127 0" result="hardAlpha"/>
<feOffset dx="4" dy="4"/>
<feGaussianBlur stdDeviation="2.5"/>
<feComposite in2="hardAlpha" operator="arithmetic" k2="-1" k3="1"/>
<feColorMatrix type="matrix" values="0 0 0 0 0 0 0 0 0 0 0 0 0 0 0 0 0 0 0.25 0"/>
<feBlend mode="normal" in2="shape" result="effect1_innerShadow_13_749"/>
</filter>
</defs>
</svg>
