<svg width="107" height="80" viewBox="0 0 107 80" fill="none" xmlns="http://www.w3.org/2000/svg">
<g id="Vector" filter="url(#filter0_i_13_747)">
<path d="M46.6667 80C46.6667 80 40 80 40 73.3333C40 66.6667 46.6667 46.6667 73.3333 46.6667C100 46.6667 106.667 66.6667 106.667 73.3333C106.667 80 100 80 100 80H46.6667ZM73.3333 40C78.6377 40 83.7247 37.8929 87.4755 34.1421C91.2262 30.3914 93.3333 25.3043 93.3333 20C93.3333 14.6957 91.2262 9.60859 87.4755 5.85786C83.7247 2.10714 78.6377 0 73.3333 0C68.029 0 62.9419 2.10714 59.1912 5.85786C55.4405 9.60859 53.3333 14.6957 53.3333 20C53.3333 25.3043 55.4405 30.3914 59.1912 34.1421C62.9419 37.8929 68.029 40 73.3333 40ZM34.7733 80C33.785 77.9188 33.2922 75.6369 33.3333 73.3333C33.3333 64.3 37.8667 55 46.24 48.5333C42.0606 47.2456 37.7063 46.6158 33.3333 46.6667C6.66667 46.6667 0 66.6667 0 73.3333C0 80 6.66667 80 6.66667 80H34.7733ZM30 40C34.4203 40 38.6595 38.2441 41.7851 35.1184C44.9107 31.9928 46.6667 27.7536 46.6667 23.3333C46.6667 18.9131 44.9107 14.6738 41.7851 11.5482C38.6595 8.42261 34.4203 6.66667 30 6.66667C25.5797 6.66667 21.3405 8.42261 18.2149 11.5482C15.0893 14.6738 13.3333 18.9131 13.3333 23.3333C13.3333 27.7536 15.0893 31.9928 18.2149 35.1184C21.3405 38.2441 25.5797 40 30 40Z" fill="#FFC212"/>
</g>
<defs>
<filter id="filter0_i_13_747" x="0" y="0" width="110.667" height="84" filterUnits="userSpaceOnUse" color-interpolation-filters="sRGB">
<feFlood flood-opacity="0" result="BackgroundImageFix"/>
<feBlend mode="normal" in="SourceGraphic" in2="BackgroundImageFix" result="shape"/>
<feColorMatrix in="SourceAlpha" type="matrix" values="0 0 0 0 0 0 0 0 0 0 0 0 0 0 0 0 0 0 127 0" result="hardAlpha"/>
<feOffset dx="4" dy="4"/>
<feGaussianBlur stdDeviation="2.5"/>
<feComposite in2="hardAlpha" operator="arithmetic" k2="-1" k3="1"/>
<feColorMatrix type="matrix" values="0 0 0 0 0 0 0 0 0 0 0 0 0 0 0 0 0 0 0.25 0"/>
<feBlend mode="normal" in2="shape" result="effect1_innerShadow_13_747"/>
</filter>
</defs>
</svg>
